# xmcd
#
# Track frame offsets: 
#        150
#        17928
#        45741
#        74845
#        95255
#        121197
#        136254
#        153159
#        173696
#        192505
#        216875
#        237814
#        254121
#        279068
#        301488
#        326107
#
# Disc length: 4761 seconds
#
# Revision: 2
# Processed by: cddbd v1.5.2PL0 Copyright (c) Steve Scherf et al.
# Submitted via: ExactAudioCopy v1.3
#
DISCID=e7129710
DTITLE=Various Artist - Akella Presents - vol. 07 - Black Pure Blues  CD1
DYEAR=2010
DGENRE=Blues
TTITLE0=LIL' ED and BLUES IMPERIALS - Four Leaf Clover
TTITLE1=LONG JOHN HUNTER - Irene
TTITLE2=LUTHER ALLISON - Put Your Money Where Your Mouth Is
TTITLE3=MIGHTY MO RODGERS - The Kennedy Song
TTITLE4=LONNY BROOCKS - Get Through to You
TTITLE5=TAJ MAHAL - Cheatin' on You
TTITLE6=RUFUS THOMAS - Think Twice Before You Speak
TTITLE7=BILLY BRANCH - Grown Men Cry
TTITLE8=KEB' MO' - A Letter to Tracy
TTITLE9=ROBERT COVINGTON - Help Yourself
TTITLE10=B.B.KING - I'm in the Wrong Business
TTITLE11=JAMES COTTON - Ying-Yang
TTITLE12=SMOKEHOUSE - Hoodoo Lover
TTITLE13=ALBERT KING - The Feeling
TTITLE14=ROBERT CRAY - Any Time
TTITLE15=PINETOP PERKINS - Every Day I Have the Blues
EXTD=
EXTT0=
EXTT1=
EXTT2=
EXTT3=
EXTT4=
EXTT5=
EXTT6=
EXTT7=
EXTT8=
EXTT9=
EXTT10=
EXTT11=
EXTT12=
EXTT13=
EXTT14=
EXTT15=
PLAYORDER=
